<?xml version="1.0" encoding="UTF-8"?>
<svg id="Layer_1" data-name="Layer 1" xmlns="http://www.w3.org/2000/svg" xmlns:xlink="http://www.w3.org/1999/xlink" viewBox="0 0 96 96">
  <defs>
    <style>
      .cls-1 {
        fill: url(#radial-gradient);
      }
    </style>
    <radialGradient id="radial-gradient" cx="48" cy="47.98" fx="48" fy="47.98" r="41.83" gradientUnits="userSpaceOnUse">
      <stop offset=".12" stop-color="#daff00"/>
      <stop offset=".42" stop-color="#a2a84b"/>
      <stop offset=".7" stop-color="#705a8e"/>
      <stop offset=".9" stop-color="#512ab8"/>
      <stop offset="1" stop-color="#4618c9"/>
    </radialGradient>
  </defs>
  <path class="cls-1" d="M66.84,64.24c-1.7,2.08-3.71,4.07-5.91,5.63s-3.9,1.76-4.53,4.57c-.77,3.44.05,7.64-.11,11.18-.1,2.18-.52,3.52-2.03,5.09-3.19,3.32-9.54,5.29-13.41,2.03-.87-.73-2.28-3.08-1.28-4.06.8-.78,2,.08,2.96.3,2.5.57,6.85.72,8.61-1.49.83-1.04,1.06-2.92-.64-3.12-1.09-.12-2.68.47-3.86.59-2.62.28-7.28.03-8.48-2.8-.37-.87-.4-1.72.23-2.48,1.21-1.46,3.12-.13,4.5.22,1.93.5,6.85.36,8.32-1.11.68-.68,1.09-2.67-.05-3.1s-4.28.19-5.72.17c-2.13-.03-7-1.18-8.1-3.18-.55-1,.1-2.21,1.14-2.51,1.31-.38,2.32-.14,3.61-.06,10.86.67,20.09-4.18,24.43-14.37,4.85-11.42-2.62-25.98-15.14-27.58-8.3-1.07-16.05.96-20.47,8.41-4.49,7.56-2.06,20.75,7.82,22.35,6.05.98,11.66.02,15.68-4.89s5.09-12.01-2.01-14.81c-3.72-1.47-6.34-1-9.73.89-2.6,1.45-4.6,3.83-3.04,6.93.87,1.74,3.24,1.97,4.72.88,1.34-.98,1.08-3.62,2.77-4.26s3.24.81,3.68,2.4c1.37,4.9-4.22,7.78-8.31,7.92-8.89.32-11.73-10.75-5.6-16.39,7.99-7.34,23.69-4.94,25.73,6.94,1.95,11.37-8.2,19.16-18.45,20.33-10.5,1.2-20.18-5.2-21.23-16.09-1.27-13.17,5.3-23.79,18.31-26.93,13.26-3.2,27.57,6.1,30.86,19.14,2.26,8.96.5,16.21-5.26,23.24ZM45.14,3c-1.05,1.77-.26,3-.13,4.81.14,2.1-.69,4.49.26,6.47.41.86,1.13,1.18,2.07,1.11,3.16-.25,2.6-5.62,2.52-7.77-.08-1.91.12-6.43-2.89-6.07-.82.1-1.42.78-1.82,1.45ZM82.54,23.73c-2.3-.29-4.83.83-6.75,2.01-1.47.9-4.87,3.32-2.83,5.19,1,.92,2.7.39,3.86,0,2.17-.72,6.57-2.99,7.61-5.06.28-.55.35-1.08-.17-1.54-.22-.19-1.41-.56-1.73-.6ZM20.26,25.83c-1.91-1.79-5.66-3.69-8.11-1.97-.86.6-1.03,1.24-.52,2.19.75,1.39,5.95,4.84,7.52,5.15,1.06.21,2,.14,2.76-.7,1.27-1.4-.59-3.68-1.65-4.67ZM31.03,19.42c2.04.61,2.62-.44,2.37-2.37-.29-2.28-3.53-6.74-5.55-7.81-1.72-.92-2.78-.15-3.01,1.68-.21,1.69.72,3.1,1.71,4.32s3.02,3.75,4.47,4.19ZM64.7,10.68c-1.93,1.67-5.09,6.97-1.87,8.7,2.39,1.29,4.47-2.25,5.2-4.08.55-1.39,1.46-4.05.2-5.23-1.08-1.01-2.61-.18-3.53.61Z"/>
</svg>